<svg data-v-0dd9719b="" version="1.0" xmlns="http://www.w3.org/2000/svg" xmlns:xlink="http://www.w3.org/1999/xlink" width="100%" height="100%" viewBox="0 0 340.000000 250.000000" preserveAspectRatio="xMidYMid meet" color-interpolation-filters="sRGB" style="margin: auto;"> <rect data-v-0dd9719b="" x="0" y="0" width="100%" height="100%" fill="#fff" fill-opacity="1" class="background"></rect> <rect data-v-0dd9719b="" x="0" y="0" width="100%" height="100%" fill="url(#watermark)" fill-opacity="1" class="watermarklayer"></rect> <g data-v-0dd9719b="" fill="#0083ce" class="icon-text-wrapper icon-svg-group iconsvg" transform="translate(62.58000183105469,94.82468223945176)"><g class="iconsvg-imagesvg" transform="translate(0,0)"><g><rect fill="#0083ce" fill-opacity="0" stroke-width="2" x="0" y="0" width="60" height="60.350637202144455" class="image-rect"></rect> <svg x="0" y="0" width="60" height="60.350637202144455" filtersec="colorsb8870950093" class="image-svg-svg primary" style="overflow: visible;"><svg xmlns="http://www.w3.org/2000/svg" viewBox="-9.5367431640625e-7 0.049999237060546875 59.86000061035156 60.209999084472656"><g><g><path d="M17.46 25.44a3.51 3.51 0 0 1-2-6.55 31.91 31.91 0 0 1-.46-3.73l-15 15 10 10a30.47 30.47 0 0 1 9.71.27A30.91 30.91 0 0 1 22 32.71a30.77 30.77 0 0 1-4.54-7.27z" fill="#0083ce"></path><path d="M19.49 41.87a28.93 28.93 0 0 0-8.14-.39l8.31 8.31a30.49 30.49 0 0 1-.17-7.92z" fill="#0b318f"></path><path d="M20.54 20.9a3.51 3.51 0 0 1-1.6 4.1 28.58 28.58 0 0 0 3.75 6.22A30.2 30.2 0 0 1 34 19.08a3.51 3.51 0 0 1 6.24-2.85 29.69 29.69 0 0 1 4.93-1.18l-15-15-13.72 13.64a27.38 27.38 0 0 0 .46 4.75 3.51 3.51 0 0 1 3.63 2.46zM23.08 34a28.87 28.87 0 0 0-1.9 6.69 31 31 0 0 1 5.92 2.11 3.52 3.52 0 0 1 5.82 3.63A30.41 30.41 0 0 1 38.37 52l8.4-8.38A30.53 30.53 0 0 1 23.08 34z" fill="#00a0e9"></path><path d="M46.13 16.4a29 29 0 0 0-5.67 1.21 3.5 3.5 0 0 1-6.22 2.86 28.79 28.79 0 0 0-10.89 12A28.94 28.94 0 0 0 48 42l11.86-11.88z" fill="#0b318f"></path><path d="M32.1 47.71a3.51 3.51 0 0 1-5.82-3.62 29 29 0 0 0-5.3-1.9 28.38 28.38 0 0 0 .62 9.52l8.53 8.55 7.15-7.15a28.12 28.12 0 0 0-5.18-5.4z" fill="#0083ce"></path></g></g></svg></svg> <!----></g></g> <g transform="translate(67,6.630317687988281)"><g data-gra="path-name" fill-rule="" class="tp-name iconsvg-namesvg"><g transform="scale(1)"><g><path d="M23.17-46.57L23.17-16.09Q23.17-12.19 22.21-9.1 21.25-6.01 19.39-3.88 17.52-1.76 14.79-0.62 12.06 0.52 8.52 0.52L8.52 0.52Q5.36 0.52 1.95-0.39L1.95-0.39Q2.02-1.33 2.11-2.26 2.21-3.19 2.31-4.09L2.31-4.09Q2.37-4.65 2.71-4.99 3.06-5.33 3.74-5.33L3.74-5.33Q4.32-5.33 5.3-5.04 6.27-4.75 7.9-4.75L7.9-4.75Q10.04-4.75 11.72-5.4 13.39-6.04 14.54-7.41 15.7-8.78 16.3-10.9 16.9-13.03 16.9-15.96L16.9-15.96 16.9-46.57 23.17-46.57ZM52.39-46.57L71.01 0 66.14 0Q65.29 0 64.77-0.42 64.25-0.84 63.99-1.5L63.99-1.5 59.64-12.74 38.74-12.74 34.38-1.5Q34.16-0.91 33.6-0.46 33.05 0 32.24 0L32.24 0 27.36 0 45.99-46.57 52.39-46.57ZM47.81-36.2L40.49-17.29 57.88-17.29 50.57-36.24Q49.86-37.99 49.17-40.63L49.17-40.63Q48.81-39.29 48.47-38.17 48.13-37.05 47.81-36.2L47.81-36.2ZM96.59-46.57L115.21 0 110.34 0Q109.49 0 108.97-0.42 108.45-0.84 108.19-1.5L108.19-1.5 103.84-12.74 82.94-12.74 78.59-1.5Q78.36-0.91 77.81-0.46 77.25 0 76.44 0L76.44 0 71.57 0 90.19-46.57 96.59-46.57ZM92.01-36.2L84.7-17.29 102.08-17.29 94.77-36.24Q94.06-37.99 93.37-40.63L93.37-40.63Q93.02-39.29 92.67-38.17 92.33-37.05 92.01-36.2L92.01-36.2ZM121.1-46.57L149.79-46.57 149.79-41.44 127.43-41.44 127.43-25.16 146.54-25.16 146.54-20.02 127.43-20.02 127.43 0 121.1 0 121.1-46.57Z" transform="translate(-1.9500000476837158, 46.56999969482422)"></path></g> <!----> <!----> <!----> <!----> <!----> <!----> <!----></g></g> <!----></g></g><defs v-gra="od"></defs></svg>